<svg version="1.1" xmlns="http://www.w3.org/2000/svg" viewBox="0 0 1904.9285714285716 203.4015984015984" width="5714.785714285715" height="610.2047952047951">
  <!-- svg-source:excalidraw -->
  
  <defs>
    <style>
      @font-face {
        font-family: "Virgil";
        src: url("https://excalidraw.com/Virgil.woff2");
      }
      @font-face {
        font-family: "Cascadia";
        src: url("https://excalidraw.com/Cascadia.woff2");
      }
    </style>
  </defs>
  <rect x="0" y="0" width="1904.9285714285716" height="203.4015984015984" fill="#ffffff"></rect><g stroke-linecap="round" transform="translate(10 14.843656343656448) rotate(0 143.00000000000003 87)"><path d="M0 0 L286 0 L286 174 L0 174" stroke="none" stroke-width="0" fill="#ced4da"></path><path d="M0 0 C70.87 0, 141.74 0, 286 0 M0 0 C97.11 0, 194.23 0, 286 0 M286 0 C286 57.64, 286 115.28, 286 174 M286 0 C286 64.74, 286 129.49, 286 174 M286 174 C184.33 174, 82.66 174, 0 174 M286 174 C226.36 174, 166.71 174, 0 174 M0 174 C0 126.67, 0 79.34, 0 0 M0 174 C0 113.98, 0 53.95, 0 0" stroke="#000000" stroke-width="1" fill="none"></path></g><g transform="translate(76.50000000000006 34.84365634365645) rotate(0 82 67.5)"><text x="82" y="32" font-family="Virgil, Segoe UI Emoji" font-size="36px" fill="#000000" text-anchor="middle" style="white-space: pre;" direction="ltr">Read File</text><text x="82" y="77" font-family="Virgil, Segoe UI Emoji" font-size="36px" fill="#000000" text-anchor="middle" style="white-space: pre;" direction="ltr">With List</text><text x="82" y="122" font-family="Virgil, Segoe UI Emoji" font-size="36px" fill="#000000" text-anchor="middle" style="white-space: pre;" direction="ltr">of IP's</text></g><g stroke-linecap="round" transform="translate(1601.9285714285716 10) rotate(0 146.5 89.12937062937064)"><path d="M0 0 L293 0 L293 178.26 L0 178.26" stroke="none" stroke-width="0" fill="#ced4da"></path><path d="M0 0 C114.03 0, 228.07 0, 293 0 M0 0 C98.56 0, 197.12 0, 293 0 M293 0 C293 43.75, 293 87.5, 293 178.26 M293 0 C293 65.82, 293 131.64, 293 178.26 M293 178.26 C232.19 178.26, 171.38 178.26, 0 178.26 M293 178.26 C232.63 178.26, 172.25 178.26, 0 178.26 M0 178.26 C0 124.69, 0 71.12, 0 0 M0 178.26 C0 140.93, 0 103.6, 0 0" stroke="#000000" stroke-width="1" fill="none"></path></g><g transform="translate(1624.5631868131863 49.48951048951017) rotate(0 128.5 47)"><text x="128.5" y="33" font-family="Virgil, Segoe UI Emoji" font-size="36.88111888111887px" fill="#000000" text-anchor="middle" style="white-space: pre;" direction="ltr">Show Results </text><text x="128.5" y="80" font-family="Virgil, Segoe UI Emoji" font-size="36.88111888111887px" fill="#000000" text-anchor="middle" style="white-space: pre;" direction="ltr">on Screen</text></g><g stroke-linecap="round" transform="translate(1099.9285714285716 15.14285714285711) rotate(0 146.5 89.12937062937064)"><path d="M0 0 L293 0 L293 178.26 L0 178.26" stroke="none" stroke-width="0" fill="#ced4da"></path><path d="M0 0 C94.59 0, 189.17 0, 293 0 M0 0 C115.25 0, 230.5 0, 293 0 M293 0 C293 58.45, 293 116.91, 293 178.26 M293 0 C293 39.81, 293 79.63, 293 178.26 M293 178.26 C230.88 178.26, 168.77 178.26, 0 178.26 M293 178.26 C198.75 178.26, 104.51 178.26, 0 178.26 M0 178.26 C0 129.61, 0 80.96, 0 0 M0 178.26 C0 140.84, 0 103.41, 0 0" stroke="#000000" stroke-width="1" fill="none"></path></g><g stroke-linecap="round" transform="translate(562.5714285714287 15.27222777222778) rotate(0 142.99999999999994 87)"><path d="M0 0 L286 0 L286 174 L0 174" stroke="none" stroke-width="0" fill="#ced4da"></path><path d="M0 0 C86.24 0, 172.48 0, 286 0 M0 0 C107.61 0, 215.22 0, 286 0 M286 0 C286 65.79, 286 131.58, 286 174 M286 0 C286 52.84, 286 105.69, 286 174 M286 174 C185.66 174, 85.33 174, 0 174 M286 174 C223.37 174, 160.73 174, 0 174 M0 174 C0 138.92, 0 103.85, 0 0 M0 174 C0 107.77, 0 41.54, 0 0" stroke="#000000" stroke-width="1" fill="none"></path></g><g transform="translate(582 55.272227772227836) rotate(0 122.41269841269838 45.714285714285694)"><text x="122.41269841269842" y="31.7142857142857" font-family="Virgil, Segoe UI Emoji" font-size="36.57142857142858px" fill="#000000" text-anchor="middle" style="white-space: pre;" direction="ltr">Create String</text><text x="122.41269841269842" y="77.4285714285714" font-family="Virgil, Segoe UI Emoji" font-size="36.57142857142858px" fill="#000000" text-anchor="middle" style="white-space: pre;" direction="ltr">Search</text></g><g stroke-linecap="round"><g transform="translate(869.8571428571427 100.89312179389225) rotate(0 107.14285714285722 0.13600850421073574)"><path d="M0 0 C35.71 0.05, 178.57 0.23, 214.29 0.27 M0 0 C35.71 0.05, 178.57 0.23, 214.29 0.27" stroke="#000000" stroke-width="4" fill="none"></path></g><g transform="translate(869.8571428571427 100.89312179389225) rotate(0 107.14285714285722 0.13600850421073574)"><path d="M214.29 0.27 L200.68 6.59 L200.7 -6.08 L214.29 0.27" stroke="none" stroke-width="0" fill="#000000" fill-rule="evenodd"></path><path d="M214.29 0.27 C211.3 1.66, 208.32 3.05, 200.68 6.59 M214.29 0.27 C211.25 1.68, 208.22 3.09, 200.68 6.59 M200.68 6.59 C200.69 2, 200.69 -2.59, 200.7 -6.08 M200.68 6.59 C200.69 1.53, 200.7 -3.53, 200.7 -6.08 M200.7 -6.08 C204.28 -4.41, 207.87 -2.73, 214.29 0.27 M200.7 -6.08 C204.22 -4.44, 207.73 -2.79, 214.29 0.27 M214.29 0.27 C214.29 0.27, 214.29 0.27, 214.29 0.27 M214.29 0.27 C214.29 0.27, 214.29 0.27, 214.29 0.27" stroke="#000000" stroke-width="4" fill="none"></path></g></g><g stroke-linecap="round"><g transform="translate(308.4285714285714 104.48623577139165) rotate(0 118.57142857142856 -1.8720349497844495)"><path d="M0 0 C39.52 -0.62, 197.62 -3.12, 237.14 -3.74 M0 0 C39.52 -0.62, 197.62 -3.12, 237.14 -3.74" stroke="#000000" stroke-width="4" fill="none"></path></g><g transform="translate(308.4285714285714 104.48623577139165) rotate(0 118.57142857142856 -1.8720349497844495)"><path d="M237.14 -3.74 L223.65 2.81 L223.45 -9.87 L237.14 -3.74" stroke="none" stroke-width="0" fill="#000000" fill-rule="evenodd"></path><path d="M237.14 -3.74 C232.11 -1.3, 227.07 1.15, 223.65 2.81 M237.14 -3.74 C231.92 -1.21, 226.7 1.33, 223.65 2.81 M223.65 2.81 C223.58 -1.51, 223.51 -5.82, 223.45 -9.87 M223.65 2.81 C223.6 -0.23, 223.55 -3.27, 223.45 -9.87 M223.45 -9.87 C227.77 -7.94, 232.09 -6, 237.14 -3.74 M223.45 -9.87 C226.2 -8.64, 228.95 -7.41, 237.14 -3.74 M237.14 -3.74 C237.14 -3.74, 237.14 -3.74, 237.14 -3.74 M237.14 -3.74 C237.14 -3.74, 237.14 -3.74, 237.14 -3.74" stroke="#000000" stroke-width="4" fill="none"></path></g></g><g stroke-linecap="round"><g transform="translate(1404.1428571428573 99.55304172837975) rotate(0 90.71428571428555 -0.7795642453307892)"><path d="M0 0 C30.24 -0.26, 151.19 -1.3, 181.43 -1.56 M0 0 C30.24 -0.26, 151.19 -1.3, 181.43 -1.56" stroke="#000000" stroke-width="4" fill="none"></path></g><g transform="translate(1404.1428571428573 99.55304172837975) rotate(0 90.71428571428555 -0.7795642453307892)"><path d="M181.43 -1.56 L167.89 4.9 L167.78 -7.78 L181.43 -1.56" stroke="none" stroke-width="0" fill="#000000" fill-rule="evenodd"></path><path d="M181.43 -1.56 C178.01 0.07, 174.59 1.7, 167.89 4.9 M181.43 -1.56 C177.54 0.29, 173.66 2.15, 167.89 4.9 M167.89 4.9 C167.86 1.73, 167.83 -1.44, 167.78 -7.78 M167.89 4.9 C167.85 0.1, 167.81 -4.7, 167.78 -7.78 M167.78 -7.78 C172.36 -5.69, 176.95 -3.6, 181.43 -1.56 M167.78 -7.78 C172.99 -5.4, 178.21 -3.03, 181.43 -1.56 M181.43 -1.56 C181.43 -1.56, 181.43 -1.56, 181.43 -1.56 M181.43 -1.56 C181.43 -1.56, 181.43 -1.56, 181.43 -1.56" stroke="#000000" stroke-width="4" fill="none"></path></g></g><g transform="translate(1153.4285714285716 59.27222777222772) rotate(0 93 45)"><text x="93" y="32" font-family="Virgil, Segoe UI Emoji" font-size="36px" fill="#000000" text-anchor="middle" style="white-space: pre;" direction="ltr">Search </text><text x="93" y="77" font-family="Virgil, Segoe UI Emoji" font-size="36px" fill="#000000" text-anchor="middle" style="white-space: pre;" direction="ltr">in the API</text></g></svg>